<?xml version="1.0" standalone="no"?><!DOCTYPE svg PUBLIC "-//W3C//DTD SVG 1.1//EN" "http://www.w3.org/Graphics/SVG/1.1/DTD/svg11.dtd"><svg t="1769584680936" class="icon" viewBox="0 0 1024 1024" version="1.1" xmlns="http://www.w3.org/2000/svg" p-id="16674" xmlns:xlink="http://www.w3.org/1999/xlink" width="200" height="200"><path d="M192 0h448.1536L960 320v576c0 70.6944-57.3056 128-128 128H192C121.3056 1024 64 966.6944 64 896V128C64 57.3056 121.3056 0 192 0z" fill="#57D7D7" p-id="16675"></path><path d="M320.9344 733.8496c23.9488 0 42.7392-6.0928 56.3456-18.2784 13.6064-12.1856 20.224-29.0176 19.84-50.5344l-0.2688-0.8192h-39.5648c0 13.0944-3.008 22.8096-9.024 29.1328-6.016 6.3232-15.1168 9.4848-27.328 9.4848-12.864 0-22.8992-4.8896-30.1184-14.6688-7.232-9.792-10.8416-22.4256-10.8416-37.9392v-40.2816c0-15.424 3.4304-27.9936 10.2784-37.7344 6.848-9.728 16.384-14.592 28.5824-14.592 13.1456 0 22.8608 3.1488 29.1584 9.472 6.2848 6.3232 9.4336 15.9488 9.4336 28.864h39.6928l0.2816-0.832c0.384-21.7728-6.4256-38.6688-20.4032-50.6624-13.9776-12.0064-33.3696-17.9968-58.1632-17.9968-23.7568 0-42.9568 7.808-57.6 23.4624-14.6176 15.6416-21.9392 35.7376-21.9392 60.288V650.24c0 24.64 7.5008 44.7488 22.5152 60.288 15.0016 15.5648 34.7136 23.3344 59.136 23.3344z m177.9584 0c22.3616 0 40.3584-4.992 53.9648-14.9504 13.6064-9.9712 20.4032-23.5776 20.4032-40.832 0-16.5376-5.8752-29.8496-17.6128-39.9488-11.7376-10.112-28.8-18.304-51.1616-24.576-14.6304-4.8896-24.9344-9.536-30.8992-13.9136-5.9648-4.3904-8.9472-9.984-8.9472-16.8192 0-7.4752 2.752-13.6192 8.256-18.4192 5.504-4.8 13.2736-7.1936 23.3472-7.1936 11.0848 0 19.712 2.688 25.856 8.0896 6.144 5.4016 9.216 13.1328 9.216 23.1936H570.88l0.2816-0.832c0.4736-18.2784-6.1696-33.0368-19.9168-44.288-13.7472-11.264-31.8976-16.896-54.4512-16.896-21.248 0-38.72 5.2352-52.416 15.7056-13.696 10.4832-20.5568 23.9744-20.5568 40.4992 0 16.4224 6.08 29.3888 18.2528 38.912 12.16 9.4976 29.9776 17.7536 53.4656 24.768 13.696 4.16 23.2704 8.576 28.7232 13.2992 5.4528 4.6976 8.192 10.9312 8.192 18.688 0 7.5648-2.88 13.6064-8.6144 18.1376-5.7216 4.5184-14.0416 6.784-24.9472 6.784-12.1088 0-21.7088-2.816-28.8-8.448-7.0784-5.632-10.624-14.4-10.624-26.304h-39.552l-0.2816 0.832c-0.4736 21.4144 7.1424 37.504 22.848 48.32 15.7056 10.7904 34.5088 16.192 56.4096 16.192z m197.6704-2.9056l69.1968-201.5744H722.688l-44.3136 147.3024-2.3808 10.6624h-0.832l-2.5216-11.072-44.032-146.8928h-43.0592l69.056 201.5744h41.9456z" fill="#FFFFFF" opacity=".9" p-id="16676"></path><path d="M296.1664 354.24c10.5856 0 19.7248-2.688 27.4176-8.1024a62.3488 62.3488 0 0 0 18.5344-20.4032c0.512 4.4672 1.3824 8.832 2.5728 13.0816 1.1904 4.2624 2.624 8.32 4.288 12.16h45.3376a111.7952 111.7952 0 0 1-5.696-20.736 131.712 131.712 0 0 1-1.792-22.272v-69.632c0-19.008-6.2464-33.6-18.7648-43.776-12.5184-10.1888-28.9024-15.2704-49.152-15.2704-21.1968 0-38.3488 5.1584-51.4944 15.488-13.1328 10.3424-19.3408 22.6304-18.6112 36.864l0.3072 0.9216h43.776c0-6.2208 1.9968-11.136 6.0032-14.72 3.9936-3.584 9.6768-5.376 17.0624-5.376 8.4096 0 14.7456 2.24 18.9952 6.7072 4.2624 4.4672 6.4 10.752 6.4 18.8416v13.4016H315.776c-24.3968 0-42.9696 4.544-55.68 13.632-12.736 9.088-19.0976 21.888-19.0976 38.4 0 15.6928 4.7744 28.0704 14.336 37.1584 9.5488 9.088 23.168 13.632 40.8192 13.632z m11.2128-33.6512c-6.5408 0-11.648-1.6896-15.3472-5.056-3.6864-3.3792-5.5296-7.9232-5.5296-13.632 0-6.9632 2.4704-12.8256 7.3984-17.6128 4.9408-4.7744 12.2368-7.168 21.888-7.168h25.5488v23.8464c-2.2784 5.184-6.528 9.7536-12.7744 13.696a38.7584 38.7584 0 0 1-21.184 5.9264z m136.32 77.44L468.48 348.928v-36.9152h-44.2368v35.52l-10.9056 50.4704h30.3744z" fill="#1DB5B5" opacity=".9" p-id="16677"></path><path d="M640 0l320 320H768c-70.6944 0-128-57.3056-128-128V0z" fill="#1DB5B5" p-id="16678"></path></svg>